# xmcd
#
# Track frame offsets:
#	150
#	29301
#	44223
#	58283
#	77423
#	95860
#	116234
#	141626
#	153544
#	174605
#
# Disc length: 2518 seconds
# Revision: 0
# Processed by: cddbd v1.5.2PL0 Copyright (c) Steve Scherf et al.
# Submitted via: dBpowerAMP V12.0
#
DISCID=9909d40a
DTITLE=Phil Madeira - Providence
DYEAR=2018
DGENRE=Country
TTITLE0=Wicked Job
TTITLE1=A Rhode Island Yankee On Jefferson Davis Court
TTITLE2=Dearest Companion
TTITLE3=Back In The Ocean State
TTITLE4=Barrington
TTITLE5=Crescent Park
TTITLE6=Rich Man's Town
TTITLE7=Wide Eyed Dream
TTITLE8=Native Son
TTITLE9=Gothenburg
EXTD=
EXTT0=
EXTT1=
EXTT2=
EXTT3=
EXTT4=
EXTT5=
EXTT6=
EXTT7=
EXTT8=
EXTT9=
PLAYORDER=
